<svg width="163" height="31" viewBox="0 0 163 31" fill="none" xmlns="http://www.w3.org/2000/svg">
<path d="M13.7461 21.6726V8.09491" stroke="#333333" stroke-width="2.45459"/>
<path d="M13.7461 21.7315C13.7461 17.486 17.222 14.0444 21.5098 14.0444" stroke="#333333" stroke-width="2.45459"/>
<path d="M13.7452 8.0949C13.7452 4.80911 16.4354 2.14545 19.7539 2.14545" stroke="#333333" stroke-width="2.45459"/>
<path d="M21.5097 14.0444C25.7975 14.0444 29.2734 17.4861 29.2734 21.7316" stroke="#333333" stroke-width="2.45459"/>
<path d="M19.7545 2.14545C23.0895 2.14545 25.793 4.80912 25.793 8.09491" stroke="#333333" stroke-width="2.45459"/>
<path d="M21.5098 29.4187C17.222 29.4187 13.7461 25.9771 13.7461 21.7316" stroke="#333333" stroke-width="2.45459"/>
<path d="M29.2735 21.7316C29.2735 25.9771 25.7975 29.4187 21.5098 29.4187" stroke="#333333" stroke-width="2.45459"/>
<path d="M7.85812 27.498C4.62277 27.498 2 24.8839 2 21.6592" stroke="#333333" stroke-width="2.45459"/>
<path d="M7.89746 17.0862C8.57528 17.0862 9.12476 16.5367 9.12476 15.8589C9.12476 15.1811 8.57528 14.6316 7.89746 14.6316V17.0862ZM3.22784 21.6593C3.22784 19.1526 5.29932 17.0862 7.89746 17.0862V14.6316C3.98205 14.6316 0.77325 17.759 0.77325 21.6593H3.22784Z" fill="#333333"/>
<path d="M13.7553 21.6593C13.7553 24.8839 11.1152 27.498 7.8584 27.498" stroke="#333333" stroke-width="2.45459"/>
<path d="M21.3906 12.8171C20.7128 12.8171 20.1633 13.3666 20.1633 14.0444C20.1633 14.7222 20.7128 15.2717 21.3906 15.2717V12.8171ZM24.5657 8.09492C24.5657 9.54446 24.1925 10.7685 23.6096 11.5937C23.0457 12.392 22.2977 12.8171 21.3906 12.8171V15.2717C23.2041 15.2717 24.6573 14.3649 25.6145 13.0099C26.5526 11.6818 27.0203 9.93117 27.0203 8.09492H24.5657Z" fill="#333333"/>
<path d="M40.2917 27.1237C39.9717 27.1528 39.7099 27.1019 39.5062 26.971C39.3026 26.8546 39.1644 26.7019 39.0917 26.5128C39.0044 26.3237 38.9753 26.1273 39.0044 25.9237C39.0335 25.7201 39.1208 25.5382 39.2662 25.3782C39.3971 25.2328 39.579 25.1528 39.8117 25.1382C40.4663 25.08 40.939 24.8909 41.2299 24.5709C41.5354 24.2655 41.6881 23.7927 41.6881 23.1527V13.5307C41.6881 13.0798 41.8045 12.738 42.0372 12.5053C42.2845 12.2725 42.6263 12.1562 43.0627 12.1562C43.499 12.1562 43.8336 12.2725 44.0663 12.5053C44.2991 12.738 44.4154 13.0798 44.4154 13.5307V22.9127C44.4154 23.8437 44.2627 24.6073 43.9572 25.2037C43.6663 25.8001 43.2154 26.251 42.6045 26.5564C42.0081 26.8619 41.2372 27.051 40.2917 27.1237ZM43.0409 10.1488C42.5318 10.1488 42.1317 10.0252 41.8408 9.77793C41.5645 9.51611 41.4263 9.15973 41.4263 8.70882C41.4263 8.24335 41.5645 7.88698 41.8408 7.6397C42.1317 7.39243 42.5318 7.26879 43.0409 7.26879C43.5645 7.26879 43.9645 7.39243 44.2409 7.6397C44.5172 7.88698 44.6554 8.24335 44.6554 8.70882C44.6554 9.15973 44.5172 9.51611 44.2409 9.77793C43.9645 10.0252 43.5645 10.1488 43.0409 10.1488ZM50.76 23.2182C49.9891 23.2182 49.2982 23.0727 48.6873 22.7818C48.0909 22.4764 47.6182 22.0691 47.2691 21.56C46.9345 21.0509 46.7672 20.4763 46.7672 19.8363C46.7672 19.0508 46.9709 18.4326 47.3782 17.9817C47.7854 17.5163 48.4473 17.1817 49.3636 16.9781C50.28 16.7744 51.5091 16.6726 53.051 16.6726H54.1419V18.2435H53.0728C52.171 18.2435 51.451 18.2872 50.9128 18.3745C50.3746 18.4617 49.9891 18.6145 49.7564 18.8326C49.5382 19.0363 49.4291 19.3272 49.4291 19.7054C49.4291 20.1854 49.5964 20.5781 49.9309 20.8836C50.2655 21.1891 50.7309 21.3418 51.3273 21.3418C51.8073 21.3418 52.2292 21.2327 52.5928 21.0145C52.971 20.7818 53.2692 20.469 53.4874 20.0763C53.7055 19.6836 53.8146 19.2327 53.8146 18.7236V16.2144C53.8146 15.4871 53.6546 14.9635 53.3346 14.6435C53.0146 14.3235 52.4764 14.1635 51.7201 14.1635C51.2982 14.1635 50.84 14.2144 50.3455 14.3162C49.8655 14.418 49.3564 14.5926 48.8182 14.8398C48.5418 14.9708 48.2945 15.0071 48.0763 14.9489C47.8727 14.8908 47.7127 14.7744 47.5963 14.5998C47.48 14.4107 47.4218 14.2071 47.4218 13.9889C47.4218 13.7707 47.48 13.5598 47.5963 13.3562C47.7127 13.138 47.9091 12.978 48.1854 12.8762C48.8545 12.5998 49.4946 12.4034 50.1055 12.2871C50.7309 12.1707 51.2982 12.1125 51.8073 12.1125C52.8546 12.1125 53.7128 12.2725 54.3819 12.5925C55.0656 12.9125 55.5747 13.3998 55.9092 14.0544C56.2438 14.6944 56.4111 15.5235 56.4111 16.5417V21.7782C56.4111 22.2291 56.302 22.5782 56.0838 22.8255C55.8656 23.0582 55.5529 23.1745 55.1456 23.1745C54.7383 23.1745 54.4183 23.0582 54.1856 22.8255C53.9674 22.5782 53.8583 22.2291 53.8583 21.7782V20.7309H54.0328C53.931 21.24 53.7274 21.6836 53.4219 22.0618C53.131 22.4254 52.7601 22.7091 52.3092 22.9127C51.8582 23.1164 51.3419 23.2182 50.76 23.2182ZM60.532 23.1527C60.0957 23.1527 59.7611 23.0218 59.5284 22.76C59.2957 22.4982 59.1793 22.1345 59.1793 21.6691V13.6616C59.1793 13.1816 59.2957 12.818 59.5284 12.5707C59.7611 12.3089 60.0957 12.178 60.532 12.178C60.9684 12.178 61.303 12.3089 61.5357 12.5707C61.783 12.818 61.9066 13.1816 61.9066 13.6616V21.6691C61.9066 22.1345 61.7902 22.4982 61.5575 22.76C61.3248 23.0218 60.983 23.1527 60.532 23.1527ZM60.532 10.1488C60.0229 10.1488 59.6229 10.0252 59.332 9.77793C59.0556 9.51611 58.9175 9.15973 58.9175 8.70882C58.9175 8.24335 59.0556 7.88698 59.332 7.6397C59.6229 7.39243 60.0229 7.26879 60.532 7.26879C61.0557 7.26879 61.4557 7.39243 61.7321 7.6397C62.0084 7.88698 62.1466 8.24335 62.1466 8.70882C62.1466 9.15973 62.0084 9.51611 61.7321 9.77793C61.4557 10.0252 61.0557 10.1488 60.532 10.1488ZM70.8933 23.2182C69.9915 23.2182 69.1987 22.9927 68.5151 22.5418C67.846 22.0909 67.4023 21.4872 67.1842 20.7309L67.4242 20.1854V21.7782C67.4242 22.2291 67.3078 22.5782 67.0751 22.8255C66.8423 23.0582 66.5151 23.1745 66.0932 23.1745C65.6569 23.1745 65.3223 23.0582 65.0896 22.8255C64.8568 22.5782 64.7405 22.2291 64.7405 21.7782V8.81791C64.7405 8.36699 64.8568 8.02517 65.0896 7.79244C65.3223 7.5597 65.6569 7.44334 66.0932 7.44334C66.5296 7.44334 66.8642 7.5597 67.0969 7.79244C67.3442 8.02517 67.4678 8.36699 67.4678 8.81791V14.4907H67.206C67.4387 13.778 67.8896 13.2034 68.5587 12.7671C69.2278 12.3307 70.006 12.1125 70.8933 12.1125C71.8388 12.1125 72.6606 12.338 73.3588 12.7889C74.057 13.2398 74.6025 13.8798 74.9952 14.7089C75.388 15.5235 75.5843 16.5053 75.5843 17.6544C75.5843 18.789 75.388 19.7781 74.9952 20.6218C74.6025 21.4509 74.0497 22.0909 73.337 22.5418C72.6388 22.9927 71.8242 23.2182 70.8933 23.2182ZM70.1297 21.1454C70.6679 21.1454 71.1406 21.0145 71.5479 20.7527C71.9552 20.4909 72.2679 20.1054 72.4861 19.5963C72.7188 19.0727 72.8352 18.4254 72.8352 17.6544C72.8352 16.4908 72.5879 15.6253 72.0933 15.058C71.5988 14.4762 70.9442 14.1853 70.1297 14.1853C69.5915 14.1853 69.1187 14.3162 68.7115 14.578C68.3042 14.8253 67.9842 15.2108 67.7514 15.7344C67.5333 16.2435 67.4242 16.8835 67.4242 17.6544C67.4242 18.8036 67.6714 19.6763 68.166 20.2727C68.6605 20.8545 69.3151 21.1454 70.1297 21.1454ZM81.685 23.2182C80.7977 23.2182 80.0632 23.0582 79.4813 22.7382C78.8995 22.4036 78.4631 21.9091 78.1722 21.2545C77.8958 20.6 77.7577 19.7854 77.7577 18.8108V13.5307C77.7577 13.0653 77.874 12.7234 78.1068 12.5053C78.3395 12.2725 78.674 12.1562 79.1104 12.1562C79.5468 12.1562 79.8813 12.2725 80.1141 12.5053C80.3613 12.7234 80.485 13.0653 80.485 13.5307V18.8545C80.485 19.6108 80.6377 20.1709 80.9432 20.5345C81.2486 20.8981 81.7359 21.08 82.405 21.08C83.1323 21.08 83.7287 20.8327 84.1941 20.3381C84.6596 19.829 84.8923 19.1599 84.8923 18.3308V13.5307C84.8923 13.0653 85.0087 12.7234 85.2414 12.5053C85.4742 12.2725 85.8087 12.1562 86.2451 12.1562C86.6815 12.1562 87.016 12.2725 87.2487 12.5053C87.496 12.7234 87.6197 13.0653 87.6197 13.5307V21.7782C87.6197 22.7091 87.176 23.1745 86.2887 23.1745C85.8669 23.1745 85.5396 23.0582 85.3069 22.8255C85.0742 22.5782 84.9578 22.2291 84.9578 21.7782V20.1199L85.2633 20.7745C84.9578 21.56 84.4923 22.1636 83.8669 22.5854C83.2559 23.0073 82.5287 23.2182 81.685 23.2182ZM100.484 23.2182C99.5527 23.2182 98.7308 22.9927 98.0181 22.5418C97.3199 22.0909 96.7744 21.4509 96.3817 20.6218C95.989 19.7781 95.7926 18.789 95.7926 17.6544C95.7926 16.5053 95.989 15.5235 96.3817 14.7089C96.7744 13.8798 97.3199 13.2398 98.0181 12.7889C98.7308 12.338 99.5527 12.1125 100.484 12.1125C101.371 12.1125 102.142 12.3307 102.796 12.7671C103.465 13.2034 103.916 13.778 104.149 14.4907H103.909V8.81791C103.909 8.36699 104.025 8.02517 104.258 7.79244C104.491 7.5597 104.826 7.44334 105.262 7.44334C105.698 7.44334 106.033 7.5597 106.266 7.79244C106.513 8.02517 106.636 8.36699 106.636 8.81791V21.7782C106.636 22.2291 106.52 22.5782 106.287 22.8255C106.055 23.0582 105.72 23.1745 105.284 23.1745C104.847 23.1745 104.513 23.0582 104.28 22.8255C104.047 22.5782 103.931 22.2291 103.931 21.7782V20.0763L104.171 20.7309C103.953 21.4872 103.509 22.0909 102.84 22.5418C102.171 22.9927 101.385 23.2182 100.484 23.2182ZM101.247 21.1454C101.785 21.1454 102.258 21.0145 102.665 20.7527C103.073 20.4909 103.385 20.1054 103.604 19.5963C103.836 19.0727 103.953 18.4254 103.953 17.6544C103.953 16.4908 103.705 15.6253 103.211 15.058C102.716 14.4762 102.062 14.1853 101.247 14.1853C100.709 14.1853 100.236 14.3162 99.829 14.578C99.4218 14.8253 99.1018 15.2108 98.869 15.7344C98.6508 16.2435 98.5417 16.8835 98.5417 17.6544C98.5417 18.8036 98.789 19.6763 99.2836 20.2727C99.7781 20.8545 100.433 21.1454 101.247 21.1454ZM114.723 23.2182C113.515 23.2182 112.475 22.9927 111.603 22.5418C110.73 22.0909 110.053 21.4509 109.573 20.6218C109.108 19.7927 108.875 18.8108 108.875 17.6763C108.875 16.5708 109.101 15.6035 109.552 14.7744C110.017 13.9453 110.65 13.298 111.45 12.8325C112.264 12.3525 113.188 12.1125 114.221 12.1125C114.977 12.1125 115.654 12.2362 116.25 12.4834C116.861 12.7307 117.377 13.0871 117.799 13.5525C118.235 14.018 118.563 14.5853 118.781 15.2544C119.014 15.909 119.13 16.6508 119.13 17.4799C119.13 17.7417 119.035 17.9454 118.846 18.0908C118.672 18.2217 118.417 18.2872 118.083 18.2872H111.079V16.7162H117.21L116.861 17.0435C116.861 16.3744 116.759 15.8144 116.555 15.3635C116.366 14.9126 116.083 14.5707 115.704 14.338C115.341 14.0907 114.883 13.9671 114.33 13.9671C113.719 13.9671 113.195 14.1126 112.759 14.4035C112.337 14.6798 112.01 15.0798 111.777 15.6035C111.559 16.1126 111.45 16.7235 111.45 17.4363V17.589C111.45 18.7817 111.726 19.6763 112.279 20.2727C112.846 20.8545 113.675 21.1454 114.766 21.1454C115.144 21.1454 115.566 21.1018 116.032 21.0145C116.512 20.9127 116.963 20.7454 117.384 20.5127C117.69 20.3381 117.959 20.2654 118.192 20.2945C118.425 20.309 118.606 20.389 118.737 20.5345C118.883 20.68 118.97 20.8618 118.999 21.08C119.028 21.2836 118.985 21.4945 118.868 21.7127C118.766 21.9309 118.585 22.12 118.323 22.28C117.814 22.6 117.224 22.84 116.555 23C115.901 23.1455 115.29 23.2182 114.723 23.2182ZM125.195 23.2182C124.57 23.2182 123.908 23.1527 123.21 23.0218C122.512 22.8909 121.886 22.6654 121.333 22.3454C121.101 22.2 120.933 22.0327 120.832 21.8436C120.744 21.64 120.708 21.4436 120.723 21.2545C120.752 21.0509 120.824 20.8763 120.941 20.7309C121.072 20.5854 121.232 20.4909 121.421 20.4472C121.624 20.4036 121.843 20.44 122.075 20.5563C122.657 20.8327 123.203 21.0291 123.712 21.1454C124.221 21.2472 124.723 21.2981 125.217 21.2981C125.915 21.2981 126.432 21.1818 126.766 20.9491C127.115 20.7018 127.29 20.3818 127.29 19.989C127.29 19.6545 127.174 19.3999 126.941 19.2254C126.723 19.0363 126.388 18.8981 125.937 18.8108L123.755 18.3963C122.854 18.2217 122.163 17.8944 121.683 17.4144C121.217 16.9199 120.984 16.2871 120.984 15.5162C120.984 14.818 121.173 14.2144 121.552 13.7053C121.944 13.1962 122.483 12.8034 123.166 12.5271C123.85 12.2507 124.635 12.1125 125.523 12.1125C126.163 12.1125 126.759 12.1852 127.312 12.3307C127.879 12.4616 128.425 12.6725 128.948 12.9634C129.166 13.0798 129.312 13.2325 129.385 13.4216C129.472 13.6107 129.494 13.8071 129.45 14.0107C129.406 14.1998 129.319 14.3744 129.188 14.5344C129.057 14.6798 128.89 14.7744 128.686 14.818C128.497 14.8471 128.279 14.8035 128.032 14.6871C127.581 14.4544 127.145 14.2871 126.723 14.1853C126.315 14.0835 125.923 14.0326 125.544 14.0326C124.832 14.0326 124.301 14.1562 123.952 14.4035C123.617 14.6507 123.45 14.978 123.45 15.3853C123.45 15.6908 123.552 15.9453 123.755 16.149C123.959 16.3526 124.272 16.4908 124.694 16.5635L126.875 16.9781C127.821 17.1526 128.534 17.4726 129.014 17.9381C129.508 18.4035 129.755 19.029 129.755 19.8145C129.755 20.8763 129.341 21.7127 128.512 22.3236C127.683 22.92 126.577 23.2182 125.195 23.2182ZM133.296 23.1527C132.86 23.1527 132.525 23.0218 132.293 22.76C132.06 22.4982 131.943 22.1345 131.943 21.6691V13.6616C131.943 13.1816 132.06 12.818 132.293 12.5707C132.525 12.3089 132.86 12.178 133.296 12.178C133.733 12.178 134.067 12.3089 134.3 12.5707C134.547 12.818 134.671 13.1816 134.671 13.6616V21.6691C134.671 22.1345 134.554 22.4982 134.322 22.76C134.089 23.0218 133.747 23.1527 133.296 23.1527ZM133.296 10.1488C132.787 10.1488 132.387 10.0252 132.096 9.77793C131.82 9.51611 131.682 9.15973 131.682 8.70882C131.682 8.24335 131.82 7.88698 132.096 7.6397C132.387 7.39243 132.787 7.26879 133.296 7.26879C133.82 7.26879 134.22 7.39243 134.496 7.6397C134.773 7.88698 134.911 8.24335 134.911 8.70882C134.911 9.15973 134.773 9.51611 134.496 9.77793C134.22 10.0252 133.82 10.1488 133.296 10.1488ZM142.479 27.1455C141.694 27.1455 140.93 27.0728 140.188 26.9273C139.461 26.7819 138.799 26.5564 138.203 26.251C137.926 26.1055 137.737 25.931 137.636 25.7273C137.548 25.5237 137.519 25.3128 137.548 25.0946C137.592 24.8909 137.679 24.7091 137.81 24.5491C137.956 24.3891 138.13 24.28 138.334 24.2218C138.537 24.1637 138.748 24.1928 138.966 24.3091C139.607 24.6291 140.21 24.8328 140.777 24.92C141.359 25.0219 141.854 25.0728 142.261 25.0728C143.236 25.0728 143.963 24.8328 144.443 24.3528C144.938 23.8873 145.185 23.1891 145.185 22.2582V20.2945H145.381C145.163 21.0363 144.705 21.6327 144.007 22.0836C143.323 22.52 142.545 22.7382 141.672 22.7382C140.712 22.7382 139.876 22.52 139.163 22.0836C138.45 21.6327 137.897 21.0072 137.505 20.2072C137.112 19.4072 136.916 18.4763 136.916 17.4144C136.916 16.6144 137.025 15.8944 137.243 15.2544C137.476 14.5998 137.796 14.0398 138.203 13.5744C138.625 13.1089 139.126 12.7525 139.708 12.5053C140.305 12.2434 140.959 12.1125 141.672 12.1125C142.574 12.1125 143.359 12.338 144.028 12.7889C144.712 13.2253 145.156 13.8071 145.359 14.5344L145.141 15.0798V13.5307C145.141 13.0798 145.258 12.738 145.49 12.5053C145.738 12.2725 146.072 12.1562 146.494 12.1562C146.93 12.1562 147.265 12.2725 147.498 12.5053C147.73 12.738 147.847 13.0798 147.847 13.5307V21.9309C147.847 23.6618 147.388 24.9637 146.472 25.8364C145.556 26.7092 144.225 27.1455 142.479 27.1455ZM142.414 20.6654C142.981 20.6654 143.468 20.5345 143.876 20.2727C144.283 20.0109 144.596 19.6399 144.814 19.1599C145.047 18.6654 145.163 18.0835 145.163 17.4144C145.163 16.4108 144.916 15.6253 144.421 15.058C143.927 14.4762 143.257 14.1853 142.414 14.1853C141.847 14.1853 141.359 14.3162 140.952 14.578C140.545 14.8398 140.225 15.2108 139.992 15.6908C139.774 16.1708 139.665 16.7453 139.665 17.4144C139.665 18.4181 139.912 19.2108 140.407 19.7927C140.901 20.3745 141.57 20.6654 142.414 20.6654ZM152.025 23.1745C151.589 23.1745 151.254 23.0582 151.022 22.8255C150.789 22.5782 150.673 22.2291 150.673 21.7782V13.5307C150.673 13.0798 150.789 12.738 151.022 12.5053C151.254 12.2725 151.582 12.1562 152.003 12.1562C152.425 12.1562 152.753 12.2725 152.985 12.5053C153.218 12.738 153.334 13.0798 153.334 13.5307V15.0144L153.094 14.4689C153.414 13.698 153.909 13.1162 154.578 12.7234C155.262 12.3162 156.033 12.1125 156.891 12.1125C157.749 12.1125 158.454 12.2725 159.007 12.5925C159.56 12.9125 159.975 13.3998 160.251 14.0544C160.527 14.6944 160.665 15.5089 160.665 16.4981V21.7782C160.665 22.2291 160.549 22.5782 160.316 22.8255C160.084 23.0582 159.749 23.1745 159.313 23.1745C158.876 23.1745 158.534 23.0582 158.287 22.8255C158.054 22.5782 157.938 22.2291 157.938 21.7782V16.629C157.938 15.7999 157.778 15.1962 157.458 14.818C157.153 14.4398 156.673 14.2507 156.018 14.2507C155.218 14.2507 154.578 14.5053 154.098 15.0144C153.633 15.5089 153.4 16.1708 153.4 16.9999V21.7782C153.4 22.7091 152.942 23.1745 152.025 23.1745Z" fill="#333333"/>
</svg>
