<svg width="2018" height="1135" viewBox="0 0 2018 1135" fill="none" xmlns="http://www.w3.org/2000/svg">
<path fill-rule="evenodd" clip-rule="evenodd" d="M2018 0H0V1135H2018V0ZM1048.68 434.248C1072.62 410.228 1133.41 350.046 1182.18 305.763C1181.68 306.687 1181.17 307.619 1180.66 308.557C1136.15 390.469 1090.17 470.119 1043.94 550.179L1043.86 550.323C1008.01 612.405 972.024 674.734 936.477 738.557C933.784 743.39 931.104 748.128 928.527 752.681L927.997 753.618C925.63 757.799 923.334 761.854 921.282 765.538C917.673 772.017 912.621 781.094 910.471 787.586C910.085 788.749 909.552 790.513 909.148 792.637C908.822 794.357 908.13 798.52 908.854 803.695C909.584 808.898 912.658 820.252 924.586 827.222C935.664 833.696 946.188 831.45 949.955 830.372C956.869 828.396 961.716 824.437 962.776 823.57L962.892 823.477C964.825 821.915 966.604 820.228 968.07 818.773C973.717 813.163 982.275 803.342 994.081 789.191C1011.51 768.299 1029.36 745.271 1046.91 722.615L1046.93 722.586L1046.96 722.548C1059.14 706.839 1071.17 691.311 1082.83 676.8C1086.15 672.666 1089.47 668.568 1092.81 664.51C1081.89 684.666 1065.46 712.613 1050.18 738.587C1046.7 744.51 1043.28 750.33 1040 755.932C1029.87 773.216 1020.68 789.078 1016.25 797.928C1015.24 799.938 1013.71 803.09 1012.62 806.281L1012.59 806.364C1012.3 807.183 1010.4 812.539 1010.7 819.152C1010.85 822.227 1011.78 834.124 1022.79 842.911C1034.98 852.633 1048.07 849.838 1052.45 848.479C1057.26 846.99 1060.58 844.715 1061.79 843.863C1063.37 842.747 1064.6 841.681 1065.37 840.983C1066.92 839.58 1068.23 838.168 1069.16 837.137C1071.08 834.99 1073.24 832.339 1075.5 829.454C1086.61 815.246 1096.41 801.906 1105.87 789.021L1105.89 788.999C1120.11 769.637 1133.57 751.304 1149.62 732.602C1154.09 727.394 1158.96 721.738 1164 716.322C1163.47 727.174 1162.14 738.372 1160.65 750.858V750.861C1159.88 757.354 1159.06 764.196 1158.3 771.517C1155.67 796.637 1153.94 826.124 1162.05 855.355C1168.48 878.549 1180 896.642 1195.96 909.876C1211.51 922.768 1229.32 929.423 1245.85 933.278C1262.14 937.076 1279.15 938.557 1293.58 939.769L1295.22 939.907C1309.82 941.131 1321.81 942.137 1332.55 944.349C1349.87 947.911 1366.79 936.767 1370.35 919.457C1373.91 902.146 1362.77 885.225 1345.46 881.663C1330.82 878.649 1315.25 877.352 1301.82 876.235L1298.94 875.994C1283.99 874.738 1271.47 873.535 1260.38 870.949C1249.53 868.42 1242.09 864.989 1236.81 860.607C1231.94 856.568 1227.03 850.199 1223.72 838.258C1219.02 821.293 1219.46 801.979 1221.95 778.17C1222.48 773.136 1223.12 767.743 1223.8 762.106L1223.8 762.066C1226.05 743.295 1228.63 721.811 1228.19 701.789C1227.96 691.335 1226.9 681.525 1224.5 672.794C1222.15 664.265 1217.87 654.394 1209.47 646.598C1199.37 637.214 1188.35 634.565 1178.49 634.974C1179.86 632.001 1181.24 628.97 1182.62 625.913C1188.9 611.973 1195.34 596.954 1200.11 584.025C1202.48 577.605 1204.66 571.12 1206.18 565.232C1207.32 560.848 1209.54 551.761 1208.23 542.595C1207.27 535.911 1204.15 527.678 1196.76 521.149C1189.64 514.851 1181.68 512.932 1176.21 512.483C1166.65 511.698 1158.63 514.834 1155.34 516.209C1147.28 519.577 1139.53 524.848 1134.82 528.785C1131.71 531.387 1128.64 534.028 1125.6 536.705C1163.45 470.978 1201.08 405.032 1236.89 339.112C1239.51 334.297 1242.32 329.272 1245.24 324.065L1245.37 323.839C1256.74 303.534 1269.66 280.472 1278.54 256.326C1280.63 250.634 1283.23 241.373 1283.53 231.852C1283.66 227.336 1283.43 219.43 1279.75 211.276C1275.3 201.395 1265.8 191.775 1251.3 189.585C1233.29 186.863 1218.8 194.226 1210.38 199.589C1204.78 203.155 1197.63 208.903 1193.7 212.062C1192.57 212.973 1191.7 213.669 1191.22 214.036C1141.84 251.453 1034.99 357.321 1003.35 389.069C921.844 470.849 884.32 510.956 832.153 566.713L832.136 566.733L825.199 574.147C849.559 534.731 874.287 495.512 899.106 456.15L899.197 456.004C925.992 413.511 952.889 370.852 979.537 327.601C982.356 323.024 984.524 319.394 986.058 316.656C986.793 315.342 987.632 313.792 988.37 312.231C988.724 311.485 989.299 310.225 989.852 308.695L989.878 308.623C990.147 307.9 991.87 303.273 991.854 297.333C991.847 294.577 991.551 284.891 983.797 276.127C974.155 265.229 961.474 264.63 954.704 265.713C948.831 266.653 944.721 269.007 943.341 269.824C941.496 270.916 940.124 271.976 939.368 272.587C936.914 274.572 935.059 276.678 934.523 277.286L934.476 277.34C932.868 279.161 931.116 281.383 929.676 283.249C926.605 287.227 922.9 292.271 920.061 296.174C916.394 301.213 915.4 302.605 915.949 301.927C903.305 317.537 890.437 333.169 877.494 348.894L877.315 349.11C834.82 400.731 791.502 453.352 752.52 509.471C742.438 523.986 746.03 543.926 760.545 554.009C760.989 554.317 761.438 554.613 761.893 554.896C737.448 594.657 713.394 634.675 690.148 675.052C687.108 680.332 683.829 685.645 680.27 691.362L679.03 693.351C675.9 698.374 672.555 703.743 669.332 709.174C662.016 721.505 654.436 735.612 649.127 751.478C648 754.847 646.73 759.267 646.232 764.057C645.911 767.147 644.794 778.996 653.131 789.851C664.313 804.411 680.51 803.635 687.335 802.171C693.804 800.783 698.794 797.84 701.222 796.315C710.842 790.274 722.611 778.528 732.334 768.379C743.087 757.156 755.023 743.877 765.751 731.872L770.114 726.986L770.12 726.979C779.248 716.757 787.089 707.975 792.752 702.003C828.633 664.162 855.602 635.335 879.384 609.914L879.396 609.9C931.205 554.522 967.898 515.301 1048.68 434.248ZM1246.61 252.54C1246.61 252.543 1246.56 252.563 1246.47 252.594C1246.56 252.553 1246.61 252.538 1246.61 252.54ZM1184.53 698.204C1184.53 698.207 1184.48 698.232 1184.37 698.272C1184.48 698.221 1184.53 698.201 1184.53 698.204ZM1144.75 546.754C1144.76 546.752 1144.75 546.832 1144.72 547.003C1144.74 546.841 1144.75 546.756 1144.75 546.754ZM1162.56 689.055C1162.57 689.079 1162.58 689.119 1162.61 689.173C1162.57 689.071 1162.55 689.024 1162.55 689.026L1162.56 689.055Z" fill="#FCFCFC"/>
</svg>
