<svg width="1724" height="1115" viewBox="0 0 1724 1115" fill="none" xmlns="http://www.w3.org/2000/svg">
<path fill-rule="evenodd" clip-rule="evenodd" d="M1724 0H0V1115H1724V0ZM1404.4 254.186C1404.4 254.188 1404.36 254.208 1404.27 254.238C1404.36 254.199 1404.4 254.184 1404.4 254.186ZM1214.12 429.161C1237.14 406.031 1295.58 348.079 1342.47 305.436C1341.98 306.327 1341.49 307.224 1341 308.127C1298.22 386.998 1254.01 463.691 1209.57 540.778L1209.56 540.797C1175.08 600.624 1140.45 660.689 1106.25 722.195C1103.67 726.849 1101.09 731.412 1098.61 735.795L1098.1 736.698C1095.83 740.724 1093.62 744.629 1091.65 748.176C1088.18 754.415 1083.32 763.156 1081.25 769.407C1080.88 770.527 1080.37 772.226 1079.98 774.271C1079.67 775.927 1079 779.936 1079.7 784.919C1080.4 789.93 1083.36 800.863 1094.82 807.575C1105.47 813.809 1115.59 811.645 1119.21 810.608C1125.86 808.705 1130.52 804.893 1131.54 804.058C1131.58 804.023 1131.62 803.992 1131.65 803.968C1133.51 802.464 1135.22 800.84 1136.63 799.438C1142.06 794.036 1150.28 784.579 1161.63 770.953C1178.4 750.826 1195.56 728.641 1212.44 706.815L1212.45 706.807C1224.16 691.671 1235.73 676.708 1246.95 662.726C1250.14 658.746 1253.34 654.799 1256.55 650.892C1246.05 670.3 1230.25 697.211 1215.57 722.222L1215.57 722.224C1212.22 727.927 1208.93 733.532 1205.77 738.926C1196.04 755.569 1187.2 770.844 1182.94 779.366C1181.98 781.301 1180.5 784.337 1179.45 787.409C1179.45 787.427 1179.44 787.453 1179.43 787.489C1179.15 788.278 1177.32 793.435 1177.61 799.804C1177.75 802.765 1178.65 814.221 1189.24 822.682C1200.95 832.044 1213.53 829.353 1217.75 828.044C1222.37 826.61 1225.56 824.419 1226.72 823.599C1228.25 822.524 1229.43 821.498 1230.17 820.825C1231.65 819.474 1232.92 818.115 1233.81 817.122C1235.66 815.054 1237.73 812.502 1239.9 809.724C1250.59 796.042 1260.01 783.196 1269.1 770.789C1282.78 752.137 1295.73 734.476 1311.17 716.461C1315.46 711.446 1320.14 705.999 1324.99 700.784C1324.48 711.232 1323.2 722.014 1321.77 734.035L1321.77 734.043C1321.02 740.296 1320.24 746.883 1319.5 753.933C1316.98 778.123 1315.32 806.517 1323.11 834.665C1329.29 857 1340.37 874.422 1355.71 887.166C1370.66 899.58 1387.78 905.988 1403.67 909.701C1419.34 913.358 1435.69 914.784 1449.56 915.952L1451.14 916.084L1451.14 916.084C1465.18 917.263 1476.7 918.232 1487.03 920.361C1503.67 923.792 1519.94 913.061 1523.36 896.392C1526.79 879.723 1516.07 863.429 1499.43 859.998C1485.36 857.096 1470.39 855.847 1457.48 854.771L1455.55 854.609L1454.71 854.539C1440.34 853.33 1428.31 852.172 1417.64 849.682C1407.21 847.246 1400.06 843.942 1394.98 839.722C1390.3 835.833 1385.58 829.701 1382.4 818.201C1377.88 801.866 1378.3 783.267 1380.7 760.34C1381.2 755.489 1381.82 750.294 1382.47 744.862L1382.48 744.833C1384.64 726.757 1387.12 706.069 1386.69 686.789C1386.47 676.722 1385.45 667.276 1383.14 658.868C1380.89 650.655 1376.77 641.15 1368.7 633.643C1358.99 624.607 1348.4 622.056 1338.92 622.45C1340.23 619.587 1341.56 616.668 1342.88 613.724C1348.92 600.301 1355.11 585.838 1359.7 573.388C1361.98 567.206 1364.07 560.962 1365.54 555.292C1366.63 551.07 1368.77 542.32 1367.5 533.494C1366.58 527.057 1363.58 519.129 1356.48 512.842C1349.63 506.778 1341.99 504.93 1336.72 504.497C1327.53 503.741 1319.82 506.761 1316.66 508.085C1308.91 511.328 1301.46 516.404 1296.94 520.195C1293.95 522.7 1290.99 525.244 1288.07 527.822C1324.46 464.53 1360.63 401.027 1395.06 337.55C1397.62 332.846 1400.36 327.935 1403.21 322.843C1414.14 303.29 1426.56 281.083 1435.1 257.831C1437.11 252.35 1439.61 243.433 1439.89 234.264C1440.03 229.915 1439.8 222.303 1436.26 214.451C1431.98 204.936 1422.85 195.673 1408.92 193.563C1391.6 190.942 1377.67 198.033 1369.57 203.197C1364.19 206.631 1357.32 212.165 1353.54 215.208L1353.53 215.215C1352.44 216.089 1351.62 216.756 1351.15 217.108C1303.68 253.139 1200.96 355.085 1170.54 385.656C1092.18 464.415 1056.1 503.037 1005.94 556.737C1003.75 559.087 1001.53 561.465 999.276 563.876C1022.69 525.93 1046.46 488.173 1070.31 450.279L1070.33 450.251L1070.34 450.229C1096.12 409.271 1122.01 368.154 1147.65 326.465C1150.36 322.058 1152.44 318.563 1153.92 315.927C1154.63 314.66 1155.43 313.168 1156.14 311.665C1156.48 310.947 1157.03 309.734 1157.57 308.26L1157.59 308.191C1157.85 307.495 1159.51 303.039 1159.49 297.319C1159.48 294.666 1159.2 285.339 1151.74 276.898C1142.48 266.405 1130.28 265.828 1123.78 266.871C1118.13 267.775 1114.18 270.042 1112.85 270.829C1111.08 271.881 1109.76 272.901 1109.03 273.49C1106.67 275.401 1104.89 277.429 1104.38 278.014L1104.33 278.066C1102.78 279.82 1101.1 281.96 1099.72 283.757C1096.76 287.587 1093.2 292.444 1090.47 296.203C1086.95 301.056 1085.99 302.396 1086.52 301.743C1074.32 316.827 1061.91 331.933 1049.42 347.128L1049.38 347.177C1008.53 396.886 966.88 447.558 929.404 501.597C919.711 515.574 923.165 534.775 937.119 544.484C937.546 544.781 937.978 545.066 938.415 545.339C914.915 583.627 891.79 622.162 869.442 661.043C866.52 666.127 863.367 671.243 859.945 676.749C859.553 677.381 859.155 678.019 858.754 678.664C855.745 683.5 852.529 688.671 849.431 693.901C842.397 705.774 835.109 719.359 830.006 734.637C828.923 737.881 827.703 742.138 827.224 746.75C826.915 749.725 825.841 761.135 833.856 771.588C844.606 785.608 860.177 784.861 866.738 783.451C872.957 782.115 877.755 779.281 880.088 777.813C889.336 771.995 900.651 760.684 909.998 750.912C920.336 740.104 931.811 727.318 942.124 715.757C943.55 714.159 944.95 712.589 946.319 711.053L946.324 711.047C955.099 701.203 962.637 692.746 968.081 686.995C1002.57 650.561 1028.5 622.805 1051.36 598.328L1051.37 598.318C1101.18 544.985 1136.45 507.218 1214.12 429.161ZM1306.48 537.498C1306.49 537.496 1306.48 537.573 1306.45 537.738C1306.47 537.583 1306.48 537.5 1306.48 537.498ZM1344.73 683.337C1344.72 683.339 1344.67 683.364 1344.57 683.402C1344.68 683.353 1344.73 683.334 1344.73 683.337ZM1323.6 674.533C1323.61 674.557 1323.62 674.593 1323.65 674.641C1323.61 674.542 1323.59 674.497 1323.59 674.499C1323.59 674.5 1323.59 674.511 1323.6 674.533ZM888.141 754.873C888.128 754.922 888.123 754.945 888.123 754.945C888.123 754.945 888.125 754.936 888.13 754.918C888.133 754.906 888.137 754.891 888.141 754.873Z" fill="#FCFCFC"/>
</svg>
