<svg width="1724" height="1115" viewBox="0 0 1724 1115" fill="none" xmlns="http://www.w3.org/2000/svg">
<g clip-path="url(#clip0_111_324)">
<path fill-rule="evenodd" clip-rule="evenodd" d="M1724 0H0V1115H1724V0ZM1404.4 254.186C1404.4 254.188 1404.36 254.208 1404.27 254.238C1404.36 254.199 1404.4 254.184 1404.4 254.186ZM1214.12 429.161C1237.14 406.031 1295.58 348.079 1342.47 305.436C1341.98 306.327 1341.49 307.224 1341 308.127C1298.22 386.998 1254.01 463.691 1209.57 540.778L1209.56 540.797C1175.08 600.624 1140.45 660.689 1106.25 722.195C1103.67 726.849 1101.09 731.412 1098.61 735.795L1098.1 736.698C1095.83 740.724 1093.62 744.629 1091.65 748.176C1088.18 754.415 1083.32 763.156 1081.25 769.407C1080.88 770.527 1080.37 772.226 1079.98 774.271C1079.67 775.927 1079 779.936 1079.7 784.919C1080.4 789.93 1083.36 800.863 1094.82 807.575C1105.47 813.809 1115.59 811.645 1119.21 810.608C1125.86 808.705 1130.52 804.893 1131.54 804.058C1131.58 804.023 1131.62 803.992 1131.65 803.968C1133.51 802.464 1135.22 800.84 1136.63 799.438C1142.06 794.036 1150.28 784.579 1161.63 770.953C1178.4 750.826 1195.56 728.641 1212.44 706.815L1212.45 706.807C1224.16 691.671 1235.73 676.708 1246.95 662.726C1250.14 658.746 1253.34 654.799 1256.55 650.892C1246.05 670.3 1230.25 697.211 1215.57 722.222V722.224C1212.22 727.927 1208.93 733.532 1205.77 738.926C1196.04 755.569 1187.2 770.844 1182.94 779.366C1181.98 781.301 1180.5 784.337 1179.45 787.409C1179.45 787.427 1179.44 787.453 1179.43 787.489C1179.15 788.278 1177.32 793.435 1177.61 799.804C1177.75 802.765 1178.65 814.221 1189.24 822.682C1200.95 832.044 1213.53 829.353 1217.75 828.044C1222.37 826.61 1225.56 824.419 1226.72 823.599C1228.25 822.524 1229.43 821.498 1230.17 820.825C1231.65 819.474 1232.92 818.115 1233.81 817.122C1235.66 815.054 1237.73 812.502 1239.9 809.724C1250.59 796.042 1260.01 783.196 1269.1 770.789C1282.78 752.137 1295.73 734.476 1311.17 716.461C1315.46 711.446 1320.14 705.999 1324.99 700.784C1324.48 711.232 1323.2 722.014 1321.77 734.035V734.043C1321.02 740.296 1320.24 746.883 1319.5 753.933C1316.98 778.123 1315.32 806.517 1323.11 834.665C1329.29 857 1340.37 874.422 1355.71 887.166C1370.66 899.58 1387.78 905.988 1403.67 909.701C1419.34 913.358 1435.69 914.784 1449.56 915.952L1451.14 916.084C1465.18 917.263 1476.7 918.232 1487.03 920.361C1503.67 923.792 1519.94 913.061 1523.36 896.392C1526.79 879.723 1516.07 863.429 1499.43 859.998C1485.36 857.096 1470.39 855.847 1457.48 854.771L1455.55 854.609L1454.71 854.539C1440.34 853.33 1428.31 852.172 1417.64 849.682C1407.21 847.246 1400.06 843.942 1394.98 839.722C1390.3 835.833 1385.58 829.701 1382.4 818.201C1377.88 801.866 1378.3 783.267 1380.7 760.34C1381.2 755.489 1381.82 750.294 1382.47 744.862L1382.48 744.833C1384.64 726.757 1387.12 706.069 1386.69 686.789C1386.47 676.722 1385.45 667.276 1383.14 658.868C1380.89 650.655 1376.77 641.15 1368.7 633.643C1358.99 624.607 1348.4 622.056 1338.92 622.45C1340.23 619.587 1341.56 616.668 1342.88 613.724C1348.92 600.301 1355.11 585.838 1359.7 573.388C1361.98 567.206 1364.07 560.962 1365.54 555.292C1366.63 551.07 1368.77 542.32 1367.5 533.494C1366.58 527.057 1363.58 519.129 1356.48 512.842C1349.63 506.778 1341.99 504.93 1336.72 504.497C1327.53 503.741 1319.82 506.761 1316.66 508.085C1308.91 511.328 1301.46 516.404 1296.94 520.195C1293.95 522.7 1290.99 525.244 1288.07 527.822C1324.46 464.53 1360.63 401.027 1395.06 337.55C1397.62 332.846 1400.36 327.935 1403.21 322.843C1414.14 303.29 1426.56 281.083 1435.1 257.831C1437.11 252.35 1439.61 243.433 1439.89 234.264C1440.03 229.915 1439.8 222.303 1436.26 214.451C1431.98 204.936 1422.85 195.673 1408.92 193.563C1391.6 190.942 1377.67 198.033 1369.57 203.197C1364.19 206.631 1357.32 212.165 1353.54 215.208L1353.53 215.215C1352.44 216.089 1351.62 216.756 1351.15 217.108C1303.68 253.139 1200.96 355.085 1170.54 385.656C1092.18 464.415 1056.1 503.037 1005.94 556.737C1003.75 559.087 1001.53 561.465 999.276 563.876C1022.69 525.93 1046.46 488.173 1070.31 450.279L1070.33 450.251L1070.34 450.229C1096.12 409.271 1122.01 368.154 1147.65 326.465C1150.36 322.058 1152.44 318.563 1153.92 315.927C1154.63 314.66 1155.43 313.168 1156.14 311.665C1156.48 310.947 1157.03 309.734 1157.57 308.26L1157.59 308.191C1157.85 307.495 1159.51 303.039 1159.49 297.319C1159.48 294.666 1159.2 285.339 1151.74 276.898C1142.48 266.405 1130.28 265.828 1123.78 266.871C1118.13 267.775 1114.18 270.042 1112.85 270.829C1111.08 271.881 1109.76 272.901 1109.03 273.49C1106.67 275.401 1104.89 277.429 1104.38 278.014L1104.33 278.066C1102.78 279.82 1101.1 281.96 1099.72 283.757C1096.76 287.587 1093.2 292.444 1090.47 296.203C1086.95 301.056 1085.99 302.396 1086.52 301.743C1074.32 316.827 1061.91 331.933 1049.42 347.128L1049.38 347.177C1008.53 396.886 966.88 447.558 929.404 501.597C919.711 515.574 923.165 534.775 937.119 544.484C937.546 544.781 937.978 545.066 938.415 545.339C914.915 583.627 891.79 622.162 869.442 661.043C866.52 666.127 863.367 671.243 859.945 676.749C859.553 677.381 859.155 678.019 858.754 678.664C855.745 683.5 852.529 688.671 849.431 693.901C842.397 705.774 835.109 719.359 830.006 734.637C828.923 737.881 827.703 742.138 827.224 746.75C826.915 749.725 825.841 761.135 833.856 771.588C844.606 785.608 860.177 784.861 866.738 783.451C872.957 782.115 877.755 779.281 880.088 777.813C889.336 771.995 900.651 760.684 909.998 750.912C920.336 740.104 931.811 727.318 942.124 715.757C943.55 714.159 944.95 712.589 946.319 711.053L946.324 711.047C955.099 701.203 962.637 692.746 968.081 686.995C1002.57 650.561 1028.5 622.805 1051.36 598.328L1051.37 598.318C1101.18 544.985 1136.45 507.218 1214.12 429.161ZM1306.48 537.498C1306.49 537.496 1306.48 537.573 1306.45 537.738C1306.47 537.583 1306.48 537.5 1306.48 537.498ZM1344.73 683.337C1344.72 683.339 1344.67 683.364 1344.57 683.402C1344.68 683.353 1344.73 683.334 1344.73 683.337ZM1323.6 674.533C1323.61 674.557 1323.62 674.593 1323.65 674.641C1323.61 674.542 1323.59 674.497 1323.59 674.499C1323.59 674.499 1323.59 674.511 1323.6 674.533ZM888.141 754.873C888.128 754.922 888.123 754.945 888.123 754.945C888.123 754.945 888.125 754.936 888.13 754.918C888.133 754.906 888.137 754.891 888.141 754.873Z" fill="#FCFCFC"/>
<path fill-rule="evenodd" clip-rule="evenodd" d="M1210.31 539C1112.11 554.45 1037 639.451 1037 741.993C1037 855.488 1129.01 947.493 1242.5 947.493C1292.96 947.493 1339.18 929.303 1374.95 899.123C1368.33 895.825 1361.84 891.746 1355.71 886.659C1340.37 873.916 1329.29 856.493 1323.11 834.159C1315.32 806.01 1316.98 777.616 1319.5 753.427C1319.87 749.88 1320.25 746.451 1320.64 743.123C1321.02 739.834 1321.4 736.644 1321.77 733.536L1321.77 733.489C1323.2 721.484 1324.48 710.714 1324.99 700.277C1320.14 705.492 1315.46 710.939 1311.17 715.954C1295.73 733.97 1282.78 751.63 1269.1 770.283C1260.01 782.689 1250.59 795.535 1239.9 809.217C1237.73 811.995 1235.66 814.548 1233.81 816.615C1232.92 817.608 1231.65 818.968 1230.17 820.318C1229.43 820.991 1228.25 822.017 1226.72 823.092C1225.56 823.912 1222.37 826.103 1217.75 827.537C1213.53 828.846 1200.95 831.537 1189.24 822.175C1178.65 813.714 1177.75 802.258 1177.61 799.297C1177.32 792.929 1179.15 787.771 1179.43 786.982L1179.46 786.902C1180.5 783.83 1181.98 780.794 1182.94 778.859C1187.2 770.337 1196.04 755.063 1205.77 738.419C1208.93 733.025 1212.22 727.42 1215.57 721.717C1230.25 696.705 1246.05 669.794 1256.55 650.385C1253.34 654.292 1250.14 658.239 1246.95 662.219C1235.75 676.178 1224.2 691.113 1212.51 706.222L1212.44 706.308L1212.43 706.318C1195.55 728.14 1178.39 750.322 1161.63 770.446C1150.28 784.072 1142.05 793.53 1136.63 798.932C1135.22 800.333 1133.51 801.957 1131.65 803.461L1131.54 803.551C1130.52 804.386 1125.86 808.198 1119.21 810.101C1115.59 811.139 1105.47 813.302 1094.82 807.068C1083.36 800.356 1080.4 789.423 1079.7 784.412C1079 779.429 1079.67 775.42 1079.98 773.765C1080.37 771.719 1080.88 770.02 1081.25 768.9C1083.32 762.649 1088.18 753.908 1091.65 747.669C1093.62 744.122 1095.83 740.217 1098.1 736.191L1098.61 735.289C1100.09 732.668 1101.61 729.983 1103.14 727.253C1104.17 725.416 1105.21 723.559 1106.25 721.688C1140.44 660.216 1175.04 600.184 1209.51 540.389L1209.56 540.29C1209.81 539.86 1210.06 539.43 1210.31 539ZM1417.84 849.22C1436.97 818.005 1448 781.287 1448 741.993C1448 672.024 1413.03 610.222 1359.62 573.11C1355.04 585.508 1348.88 599.876 1342.88 613.217C1342.04 615.087 1341.2 616.946 1340.36 618.787L1338.92 621.943C1348.4 621.549 1358.99 624.1 1368.7 633.136C1376.77 640.644 1380.89 650.149 1383.14 658.362C1385.45 666.769 1386.47 676.216 1386.69 686.283C1387.12 705.562 1384.64 726.25 1382.48 744.326C1381.83 749.768 1381.2 754.974 1380.7 759.833C1378.3 782.76 1377.88 801.359 1382.4 817.695C1385.58 829.194 1390.3 835.326 1394.98 839.216C1400.06 843.435 1407.21 846.739 1417.64 849.175C1417.71 849.19 1417.78 849.205 1417.84 849.22ZM1344.57 682.896C1344.67 682.857 1344.72 682.833 1344.73 682.83L1344.68 682.845L1344.57 682.896ZM1323.65 674.134C1323.61 674.043 1323.59 673.994 1323.59 673.992C1323.59 673.99 1323.61 674.036 1323.65 674.134Z" fill="#EEDD47" fill-opacity="0.6"/>
</g>
<defs>
<clipPath id="clip0_111_324">
<rect width="1724" height="1115" fill="white"/>
</clipPath>
</defs>
</svg>
