<svg width="725" height="756" viewBox="0 0 725 756" fill="none" xmlns="http://www.w3.org/2000/svg">
<defs>
<mask id="mask  ">
<path fill-rule="evenodd" clip-rule="evenodd" d="M600.601 63.5347C600.6 63.5371 600.555 63.5576 600.469 63.5887C600.559 63.5478 600.602 63.5322 600.601 63.5347ZM536.178 116.757C487.405 161.04 426.614 221.223 402.675 245.242C321.886 326.302 285.193 365.523 233.378 420.908C209.595 446.329 182.627 475.156 146.746 512.998C141.082 518.971 133.238 527.756 124.108 537.981C122.684 539.576 121.229 541.206 119.745 542.866C109.017 554.872 97.0811 568.15 86.328 579.374C76.6051 589.522 64.8355 601.268 55.216 607.31C52.7885 608.834 47.7983 611.777 41.329 613.165C34.5042 614.629 18.308 615.405 7.12546 600.846C-1.21188 589.991 -0.0946291 578.141 0.226778 575.052C0.725041 570.262 1.99426 565.842 3.12146 562.472C8.42938 546.607 16.0095 532.499 23.3262 520.169C26.5488 514.738 29.8947 509.368 33.0247 504.346C33.4418 503.676 33.855 503.013 34.2636 502.357C37.8233 496.639 41.1027 491.326 44.1421 486.047C67.3878 445.669 91.4427 405.652 115.886 365.891C115.433 365.607 114.983 365.312 114.539 365.003C100.024 354.921 96.4313 334.98 106.514 320.466C145.496 264.347 188.815 211.725 231.309 160.104C244.314 144.307 257.241 128.603 269.943 112.922C269.394 113.599 270.387 112.208 274.054 107.169C276.895 103.265 280.6 98.2214 283.67 94.2432C285.11 92.3774 286.863 90.1553 288.47 88.3341L288.517 88.2801C289.053 87.6721 290.908 85.5661 293.362 83.5819C294.118 82.9704 295.491 81.9103 297.335 80.8182C298.715 80.0012 302.826 77.647 308.698 76.7075C315.468 75.6244 328.149 76.2236 337.791 87.121C345.545 95.886 345.841 105.572 345.848 108.328C345.864 114.267 344.142 118.895 343.873 119.617C343.861 119.649 343.852 119.673 343.846 119.689C343.293 121.22 342.718 122.479 342.365 123.226C341.626 124.787 340.787 126.336 340.051 127.651C338.518 130.389 336.351 134.018 333.531 138.595C306.853 181.896 279.924 224.603 253.101 267.144C228.282 306.506 203.552 345.726 179.194 385.141C181.537 382.637 183.848 380.167 186.13 377.728C238.304 321.961 275.828 281.853 357.344 200.063C388.986 168.316 495.83 62.4478 545.211 25.0303C545.695 24.6636 546.561 23.9678 547.693 23.057C551.623 19.8971 558.77 14.1499 564.372 10.5834C572.794 5.22066 587.282 -2.14274 605.297 0.579685C619.791 2.7699 629.29 12.3897 633.745 22.2704C637.422 30.425 637.658 38.3301 637.519 42.8465C637.227 52.3679 634.629 61.6282 632.535 67.3202C623.653 91.4664 610.735 114.528 599.362 134.833C596.4 140.121 593.543 145.222 590.889 150.106C555.072 216.026 517.442 281.972 479.592 347.699C482.634 345.022 485.709 342.381 488.817 339.78C493.521 335.843 501.276 330.571 509.335 327.203C512.623 325.829 520.641 322.692 530.205 323.477C535.678 323.927 543.63 325.846 550.757 332.143C558.144 338.672 561.26 346.905 562.22 353.59C563.537 362.755 561.309 371.842 560.174 376.227C558.65 382.115 556.474 388.6 554.104 395.019C549.332 407.948 542.89 422.967 536.611 436.907C535.234 439.965 533.853 442.995 532.486 445.968C542.346 445.559 553.36 448.208 563.464 457.592C571.859 465.389 576.142 475.259 578.489 483.789C580.893 492.519 581.952 502.33 582.182 512.784C582.622 532.805 580.047 554.289 577.797 573.061C577.119 578.712 576.471 584.118 575.944 589.164C573.455 612.973 573.013 632.288 577.716 649.252C581.026 661.194 585.93 667.562 590.802 671.601C596.088 675.983 603.527 679.414 614.377 681.944C625.468 684.53 637.983 685.732 652.936 686.988C653.885 687.068 654.846 687.148 655.818 687.229C669.24 688.347 684.811 689.644 699.451 692.657C716.762 696.22 727.906 713.141 724.343 730.451C720.781 747.761 703.859 758.906 686.549 755.343C675.804 753.131 663.816 752.126 649.217 750.901L647.579 750.764C633.145 749.551 616.137 748.071 599.845 744.272C583.31 740.417 565.504 733.762 549.955 720.871C533.992 707.637 522.472 689.544 516.042 666.35C507.938 637.118 509.665 607.632 512.29 582.511C513.056 575.19 513.871 568.349 514.645 561.856C516.134 549.369 517.469 538.169 517.997 527.317C512.954 532.732 508.089 538.389 503.619 543.597C487.561 562.306 474.092 580.646 459.867 600.016C450.405 612.9 440.609 626.24 429.492 640.448C427.235 643.334 425.079 645.984 423.151 648.132C422.225 649.162 420.909 650.574 419.364 651.977C418.595 652.675 417.366 653.741 415.783 654.858C414.576 655.709 411.25 657.984 406.447 659.474C402.063 660.833 388.971 663.627 376.788 653.905C365.778 645.119 364.841 633.222 364.699 630.147C364.393 623.533 366.294 618.177 366.585 617.358C366.598 617.321 366.608 617.293 366.614 617.275C367.703 614.085 369.238 610.932 370.244 608.922C374.675 600.073 383.862 584.21 393.991 566.927C397.274 561.325 400.696 555.504 404.178 549.581C419.451 523.607 435.883 495.661 446.804 475.505C443.469 479.563 440.143 483.661 436.822 487.794C425.154 502.318 413.111 517.859 400.929 533.58C383.366 556.245 365.513 579.284 348.075 600.186C336.27 614.336 327.711 624.157 322.064 629.767C320.599 631.223 318.819 632.91 316.886 634.471C316.854 634.497 316.816 634.528 316.771 634.565C315.71 635.432 310.863 639.39 303.95 641.367C300.182 642.444 289.658 644.69 278.58 638.217C266.652 631.246 263.578 619.893 262.849 614.69C262.124 609.514 262.816 605.351 263.142 603.632C263.546 601.507 264.079 599.744 264.465 598.58C266.616 592.089 271.667 583.011 275.276 576.533C277.328 572.849 279.624 568.794 281.991 564.613L282.522 563.676C285.099 559.123 287.779 554.385 290.471 549.551C326.046 485.679 362.061 423.303 397.934 361.173C444.159 281.114 490.148 201.464 534.654 119.552C535.164 118.613 535.672 117.682 536.178 116.757ZM498.748 357.748C498.75 357.746 498.741 357.826 498.712 357.997C498.73 357.836 498.745 357.75 498.748 357.748ZM538.527 509.198C538.526 509.201 538.472 509.227 538.368 509.266C538.476 509.215 538.529 509.195 538.527 509.198ZM516.599 500.167C516.559 500.073 516.541 500.022 516.542 500.02C516.544 500.019 516.564 500.066 516.599 500.167ZM375.44 605.471C375.437 605.474 375.453 605.456 375.487 605.42C375.459 605.452 375.443 605.468 375.44 605.471ZM63.5734 583.562C63.5734 583.562 63.5788 583.538 63.5929 583.487C63.581 583.536 63.5734 583.562 63.5734 583.562Z" fill="#EEDD47"/>
</mask>
</defs>

</svg>